# xmcd
#
# Track frame offsets:
#	150
#	17881
#	37748
#	63817
#	83824
#	102664
#	131243
#	148772
#	166821
#	185012
#	200477
#
# Disc length: 2843 seconds
#
# Revision: 0
# Processed by: cddbd v1.4PL0 Copyright (c) Steve Scherf et al.
# Submitted via: dBpowerAMP V4.0
#
DISCID=980b190b
DTITLE=Vincent Flatts Final Drive - There 'Aint No Substitute For Cubes
DYEAR=1900
DGENRE=Blues
TTITLE0=Shape I'm In
TTITLE1=Boogie Man
TTITLE2=Ghost Of Hank Williams
TTITLE3=Honey Hush
TTITLE4=Rag Top
TTITLE5=Good Time
TTITLE6=What A Thrill
TTITLE7=Hands To Yoself
TTITLE8=Sweet Home Alabama
TTITLE9=Rollin' And Tumblin'
TTITLE10=Plastic Jesus
EXTD=
EXTT0=
EXTT1=
EXTT2=
EXTT3=
EXTT4=
EXTT5=
EXTT6=
EXTT7=
EXTT8=
EXTT9=
EXTT10=
PLAYORDER=
